<svg xmlns="http://www.w3.org/2000/svg" width="63" height="63" viewBox="0 0 63 63" fill="none"><path d="M57.75 6.3H52.5V4.2C52.5 3.08609 52.0575 2.0178 51.2698 1.23015C50.4822 0.442499 49.4139 0 48.3 0C47.1861 0 46.1178 0.442499 45.3301 1.23015C44.5425 2.0178 44.1 3.08609 44.1 4.2V6.3H35.7V4.2C35.7 3.08609 35.2575 2.0178 34.4698 1.23015C33.6822 0.442499 32.6139 0 31.5 0C30.3861 0 29.3178 0.442499 28.5301 1.23015C27.7425 2.0178 27.3 3.08609 27.3 4.2V6.3H18.9V4.2C18.9 3.08609 18.4575 2.0178 17.6698 1.23015C16.8822 0.442499 15.8139 0 14.7 0C13.5861 0 12.5178 0.442499 11.7301 1.23015C10.9425 2.0178 10.5 3.08609 10.5 4.2V6.3H5.25C3.85761 6.3 2.52226 6.85312 1.53769 7.83769C0.553123 8.82225 0 10.1576 0 11.55V53.55C0 54.9424 0.553123 56.2777 1.53769 57.2623C2.52226 58.2469 3.85761 58.8 5.25 58.8H34.65C34.9285 58.8 35.1955 58.6894 35.3925 58.4925C35.5894 58.2955 35.7 58.0285 35.7 57.75C35.7 57.4715 35.5894 57.2044 35.3925 57.0075C35.1955 56.8106 34.9285 56.7 34.65 56.7H5.25C4.41533 56.6975 3.61557 56.3648 3.02537 55.7746C2.43517 55.1844 2.10249 54.3847 2.1 53.55V21H60.9V38.85C60.9 39.1285 61.0106 39.3955 61.2075 39.5925C61.4044 39.7894 61.6715 39.9 61.95 39.9C62.2285 39.9 62.4955 39.7894 62.6925 39.5925C62.8894 39.3955 63 39.1285 63 38.85V11.55C63 10.1576 62.4469 8.82225 61.4623 7.83769C60.4777 6.85312 59.1424 6.3 57.75 6.3ZM46.2 4.2C46.2 3.64304 46.4212 3.1089 46.8151 2.71508C47.2089 2.32125 47.743 2.1 48.3 2.1C48.8569 2.1 49.3911 2.32125 49.7849 2.71508C50.1787 3.1089 50.4 3.64304 50.4 4.2V10.5C50.4 11.057 50.1787 11.5911 49.7849 11.9849C49.3911 12.3787 48.8569 12.6 48.3 12.6C47.743 12.6 47.2089 12.3787 46.8151 11.9849C46.4212 11.5911 46.2 11.057 46.2 10.5V4.2ZM29.4 4.2C29.4 3.64304 29.6212 3.1089 30.0151 2.71508C30.4089 2.32125 30.943 2.1 31.5 2.1C32.0569 2.1 32.5911 2.32125 32.9849 2.71508C33.3787 3.1089 33.6 3.64304 33.6 4.2V10.5C33.6 11.057 33.3787 11.5911 32.9849 11.9849C32.5911 12.3787 32.0569 12.6 31.5 12.6C30.943 12.6 30.4089 12.3787 30.0151 11.9849C29.6212 11.5911 29.4 11.057 29.4 10.5V4.2ZM12.6 4.2C12.6 3.64304 12.8212 3.1089 13.2151 2.71508C13.6089 2.32125 14.143 2.1 14.7 2.1C15.257 2.1 15.7911 2.32125 16.1849 2.71508C16.5787 3.1089 16.8 3.64304 16.8 4.2V10.5C16.8 11.057 16.5787 11.5911 16.1849 11.9849C15.7911 12.3787 15.257 12.6 14.7 12.6C14.143 12.6 13.6089 12.3787 13.2151 11.9849C12.8212 11.5911 12.6 11.057 12.6 10.5V4.2ZM60.9 18.9H2.1V11.55C2.10249 10.7153 2.43517 9.91557 3.02537 9.32537C3.61557 8.73517 4.41533 8.40249 5.25 8.4H10.5V10.5C10.5 11.6139 10.9425 12.6822 11.7301 13.4698C12.5178 14.2575 13.5861 14.7 14.7 14.7C15.8139 14.7 16.8822 14.2575 17.6698 13.4698C18.4575 12.6822 18.9 11.6139 18.9 10.5V8.4H27.3V10.5C27.3 11.6139 27.7425 12.6822 28.5301 13.4698C29.3178 14.2575 30.3861 14.7 31.5 14.7C32.6139 14.7 33.6822 14.2575 34.4698 13.4698C35.2575 12.6822 35.7 11.6139 35.7 10.5V8.4H44.1V10.5C44.1 11.6139 44.5425 12.6822 45.3301 13.4698C46.1178 14.2575 47.1861 14.7 48.3 14.7C49.4139 14.7 50.4822 14.2575 51.2698 13.4698C52.0575 12.6822 52.5 11.6139 52.5 10.5V8.4H57.75C58.5847 8.40249 59.3844 8.73517 59.9746 9.32537C60.5648 9.91557 60.8975 10.7153 60.9 11.55V18.9Z" fill="white"></path><path d="M29.4 28.35C29.4 27.793 29.1787 27.2589 28.7849 26.8651C28.3911 26.4712 27.857 26.25 27.3 26.25H23.1C22.543 26.25 22.0089 26.4712 21.6151 26.8651C21.2212 27.2589 21 27.793 21 28.35V31.5C21 32.0569 21.2212 32.5911 21.6151 32.9849C22.0089 33.3787 22.543 33.6 23.1 33.6H27.3C27.857 33.6 28.3911 33.3787 28.7849 32.9849C29.1787 32.5911 29.4 32.0569 29.4 31.5V28.35ZM23.1 31.5V28.35H27.3V31.5H23.1Z" fill="white"></path><path d="M16.8 28.35C16.8 27.793 16.5787 27.2589 16.1849 26.8651C15.7911 26.4712 15.257 26.25 14.7 26.25H10.5C9.94304 26.25 9.4089 26.4712 9.01507 26.8651C8.62125 27.2589 8.4 27.793 8.4 28.35V31.5C8.4 32.0569 8.62125 32.5911 9.01507 32.9849C9.4089 33.3787 9.94304 33.6 10.5 33.6H14.7C15.257 33.6 15.7911 33.3787 16.1849 32.9849C16.5787 32.5911 16.8 32.0569 16.8 31.5V28.35ZM10.5 31.5V28.35H14.7V31.5H10.5Z" fill="white"></path><path d="M52.5 33.6C53.0569 33.6 53.5911 33.3787 53.9849 32.9849C54.3787 32.5911 54.6 32.0569 54.6 31.5V28.35C54.6 27.793 54.3787 27.2589 53.9849 26.8651C53.5911 26.4712 53.0569 26.25 52.5 26.25H48.3C47.743 26.25 47.2089 26.4712 46.8151 26.8651C46.4212 27.2589 46.2 27.793 46.2 28.35V31.5C46.2 32.0569 46.4212 32.5911 46.8151 32.9849C47.2089 33.3787 47.743 33.6 48.3 33.6H52.5ZM48.3 28.35H52.5V31.5H48.3V28.35Z" fill="white"></path><path d="M29.4 37.8C29.4 37.243 29.1787 36.7089 28.7849 36.3151C28.3911 35.9212 27.857 35.7 27.3 35.7H23.1C22.543 35.7 22.0089 35.9212 21.6151 36.3151C21.2212 36.7089 21 37.243 21 37.8V40.95C21 41.5069 21.2212 42.0411 21.6151 42.4349C22.0089 42.8287 22.543 43.05 23.1 43.05H27.3C27.857 43.05 28.3911 42.8287 28.7849 42.4349C29.1787 42.0411 29.4 41.5069 29.4 40.95V37.8ZM23.1 40.95V37.8H27.3V40.95H23.1Z" fill="white"></path><path d="M16.8 37.8C16.8 37.243 16.5787 36.7089 16.1849 36.3151C15.7911 35.9212 15.257 35.7 14.7 35.7H10.5C9.94304 35.7 9.4089 35.9212 9.01507 36.3151C8.62125 36.7089 8.4 37.243 8.4 37.8V40.95C8.4 41.5069 8.62125 42.0411 9.01507 42.4349C9.4089 42.8287 9.94304 43.05 10.5 43.05H14.7C15.257 43.05 15.7911 42.8287 16.1849 42.4349C16.5787 42.0411 16.8 41.5069 16.8 40.95V37.8ZM10.5 40.95V37.8H14.7V40.95H10.5Z" fill="white"></path><path d="M27.3 45.15H23.1C22.543 45.15 22.0089 45.3712 21.6151 45.7651C21.2212 46.1589 21 46.693 21 47.25V50.4C21 50.9569 21.2212 51.4911 21.6151 51.8849C22.0089 52.2787 22.543 52.5 23.1 52.5H27.3C27.857 52.5 28.3911 52.2787 28.7849 51.8849C29.1787 51.4911 29.4 50.9569 29.4 50.4V47.25C29.4 46.693 29.1787 46.1589 28.7849 45.7651C28.3911 45.3712 27.857 45.15 27.3 45.15ZM23.1 50.4V47.25H27.3V50.4H23.1Z" fill="white"></path><path d="M35.7 33.6H39.9C40.4569 33.6 40.9911 33.3787 41.3849 32.9849C41.7787 32.5911 42 32.0569 42 31.5V28.35C42 27.793 41.7787 27.2589 41.3849 26.8651C40.9911 26.4712 40.4569 26.25 39.9 26.25H35.7C35.143 26.25 34.6089 26.4712 34.2151 26.8651C33.8212 27.2589 33.6 27.793 33.6 28.35V31.5C33.6 32.0569 33.8212 32.5911 34.2151 32.9849C34.6089 33.3787 35.143 33.6 35.7 33.6ZM35.7 28.35H39.9V31.5H35.7V28.35Z" fill="white"></path><path d="M33.6 40.95C33.6 41.5069 33.8212 42.0411 34.2151 42.4349C34.6089 42.8287 35.143 43.05 35.7 43.05C35.9785 43.05 36.2455 42.9394 36.4425 42.7425C36.6394 42.5455 36.75 42.2785 36.75 42C36.75 41.7215 36.6394 41.4544 36.4425 41.2575C36.2455 41.0606 35.9785 40.95 35.7 40.95V37.8H39.9C40.1785 37.8 40.4455 37.6894 40.6425 37.4925C40.8394 37.2955 40.95 37.0285 40.95 36.75C40.95 36.4715 40.8394 36.2044 40.6425 36.0075C40.4455 35.8106 40.1785 35.7 39.9 35.7H35.7C35.143 35.7 34.6089 35.9212 34.2151 36.3151C33.8212 36.7089 33.6 37.243 33.6 37.8V40.95Z" fill="white"></path><path d="M14.7 45.15H10.5C9.94304 45.15 9.4089 45.3712 9.01507 45.7651C8.62125 46.1589 8.4 46.693 8.4 47.25V50.4C8.4 50.9569 8.62125 51.4911 9.01507 51.8849C9.4089 52.2787 9.94304 52.5 10.5 52.5H14.7C15.257 52.5 15.7911 52.2787 16.1849 51.8849C16.5787 51.4911 16.8 50.9569 16.8 50.4V47.25C16.8 46.693 16.5787 46.1589 16.1849 45.7651C15.7911 45.3712 15.257 45.15 14.7 45.15ZM10.5 50.4V47.25H14.7V50.4H10.5Z" fill="white"></path><path d="M49.35 35.7C46.6503 35.7 44.0112 36.5006 41.7665 38.0004C39.5217 39.5003 37.7722 41.6322 36.739 44.1264C35.7059 46.6206 35.4356 49.3651 35.9623 52.013C36.489 54.6608 37.789 57.093 39.698 59.002C41.607 60.911 44.0392 62.211 46.687 62.7377C49.3348 63.2644 52.0794 62.9941 54.5736 61.9609C57.0678 60.9278 59.1997 59.1783 60.6996 56.9335C62.1994 54.6888 63 52.0497 63 49.35C62.9958 45.7311 61.5564 42.2616 58.9974 39.7026C56.4384 37.1436 52.9689 35.7042 49.35 35.7ZM49.35 60.9C47.0656 60.9 44.8325 60.2226 42.9332 58.9535C41.0338 57.6843 39.5534 55.8805 38.6792 53.77C37.805 51.6595 37.5763 49.3372 38.0219 47.0967C38.4676 44.8562 39.5676 42.7982 41.1829 41.1829C42.7982 39.5676 44.8562 38.4676 47.0967 38.0219C49.3372 37.5763 51.6595 37.805 53.77 38.6792C55.8805 39.5534 57.6843 41.0338 58.9535 42.9332C60.2226 44.8325 60.9 47.0656 60.9 49.35C60.8964 52.4121 59.6783 55.3478 57.5131 57.5131C55.3478 59.6783 52.4121 60.8964 49.35 60.9Z" fill="white"></path><path d="M55.4169 44.9484L47.25 53.1153L43.5382 49.4025C43.3402 49.2112 43.075 49.1054 42.7997 49.1078C42.5244 49.1102 42.261 49.2206 42.0663 49.4153C41.8717 49.61 41.7612 49.8733 41.7588 50.1486C41.7564 50.4239 41.8623 50.6892 42.0535 50.8872L46.5076 55.3423C46.7045 55.5392 46.9716 55.6498 47.25 55.6498C47.5284 55.6498 47.7954 55.5392 47.9923 55.3423L56.9016 46.4331C57.0929 46.2351 57.1987 45.9698 57.1963 45.6945C57.1939 45.4192 57.0835 45.1559 56.8888 44.9612C56.6941 44.7665 56.4308 44.6561 56.1555 44.6537C55.8802 44.6513 55.6149 44.7571 55.4169 44.9484Z" fill="white"></path></svg>