<svg xmlns="http://www.w3.org/2000/svg" width="136" height="28" viewBox="0 0 136 28"><g fill="#000" fill-rule="nonzero"><path d="M.1 27v-.67l3.14-1.28L12.49.76H13l8.74 25.09 2.94.48V27h-9.4v-.67l2.62-.42-2.72-7.58H6.66l-2.59 6.72 2.88 1.28V27H.1Zm6.82-9.34h8.03L11.11 6.39 6.92 17.66ZM45.88 27.32c-1.2 0-2.1-.29-2.69-.86-.6-.58-1-1.56-1.21-2.95l-.61-4.29a6.1 6.1 0 0 0-1.49-3.4c-.78-.83-1.99-1.24-3.63-1.24h-2.5v11.27l2.95.48V27h-9.41v-.67l2.94-.48V2.55L27.3 2.1v-.7h8.96c3.48 0 6 .54 7.55 1.63 1.56 1.09 2.34 2.74 2.34 4.96 0 3.67-2.22 5.8-6.66 6.37v.2c1.64.23 2.96.81 3.95 1.75 1 .94 1.62 2.19 1.87 3.75l.42 2.75c.17 1.2.37 2 .6 2.43.22.43.56.64 1.03.64.32 0 .66-.1 1.03-.3.36-.2.7-.47 1.02-.79l.54.58a5.15 5.15 0 0 1-4.06 1.95Zm-8.54-13.5c1.55 0 2.76-.48 3.63-1.43.86-.95 1.3-2.35 1.3-4.2V7.5c0-3.54-2.01-5.31-6.02-5.31h-2.5v11.62h3.59ZM65.86 27.32 56.32 2.55v22.5l3.08 1.28V27h-6.85v-.67l3.01-1.28V2.55l-2.95-.45v-.7h7.07l8.04 20.54 8.2-20.54h6.45v.7l-2.94.45v23.3l2.94.48V27h-9.4v-.67l2.94-.48V3.51l-9.47 23.81zM84.76 27v-.67l3.14-1.28L97.14.76h.52l8.73 25.09 2.95.48V27h-9.41v-.67l2.62-.42-2.72-7.58h-8.51l-2.6 6.72 2.89 1.28V27h-6.85Zm6.82-9.34h8.03L95.77 6.39l-4.2 11.27ZM112.04 27v-.67l2.97-1.28V3.35l-2.97-1.25v-.7H118l13.8 19.33V3.35L128.8 2.1v-.7h6.82v.7l-3.04 1.25V27h-.8L115.81 4.57v20.48l3.07 1.28V27z"></path></g></svg>