<svg xmlns="http://www.w3.org/2000/svg" width="160" height="24" viewBox="0 0 160 24"><g fill="#000" fill-rule="nonzero"><path d="M.47.16h7.97c3.1 0 5.4.46 6.91 1.38 1.5.92 2.26 2.36 2.26 4.3 0 1.29-.33 2.38-.98 3.29a4.4 4.4 0 0 1-2.6 1.75v.15c1.42.38 2.44 1 3.08 1.88.63.87.95 2 .95 3.4 0 2.08-.78 3.7-2.33 4.9-1.56 1.2-3.68 1.79-6.37 1.79H.46V.16Zm6.17 8.76H8.5c.89 0 1.57-.18 2.05-.54.49-.37.73-.91.73-1.63 0-1.28-.97-1.92-2.9-1.92H6.64v4.1Zm0 4.52v4.8h2.17c1.93 0 2.9-.82 2.9-2.44a2.1 2.1 0 0 0-.78-1.75c-.52-.4-1.26-.61-2.24-.61H6.64ZM43.45.16V13.9c0 2.99-.84 5.3-2.54 6.94-1.69 1.64-4.13 2.46-7.32 2.46-3.11 0-5.5-.8-7.18-2.39-1.67-1.6-2.5-3.88-2.5-6.87V.15h6.2v13.41c0 1.62.3 2.79.9 3.52.61.73 1.5 1.1 2.68 1.1 1.26 0 2.17-.37 2.74-1.1.57-.72.85-1.9.85-3.55V.16h6.17ZM56.42 14.69V23h-6.17V.16h7.48c6.21 0 9.32 2.25 9.32 6.75 0 2.64-1.3 4.69-3.88 6.14L69.83 23h-7l-4.85-8.31h-1.56Zm0-4.64h1.16c2.15 0 3.23-.96 3.23-2.86 0-1.58-1.05-2.36-3.17-2.36h-1.22v5.22ZM73.9.16h7.98c3.1 0 5.4.46 6.9 1.38 1.51.92 2.27 2.36 2.27 4.3 0 1.29-.33 2.38-.99 3.29a4.4 4.4 0 0 1-2.6 1.75v.15c1.43.38 2.45 1 3.09 1.88.63.87.95 2 .95 3.4 0 2.08-.78 3.7-2.34 4.9-1.55 1.2-3.68 1.79-6.36 1.79h-8.9V.16Zm6.18 8.76h1.86c.88 0 1.57-.18 2.05-.54.49-.37.73-.91.73-1.63 0-1.28-.97-1.92-2.9-1.92h-1.74v4.1Zm0 4.52v4.8h2.17c1.93 0 2.9-.82 2.9-2.44a2.1 2.1 0 0 0-.78-1.75c-.52-.4-1.27-.61-2.24-.61h-2.05ZM111.03 23H97.47V.16h13.56V5.1h-7.4v3.6h6.86v4.95h-6.85v4.3h7.39zM123.2 14.69V23h-6.17V.16h7.49c6.2 0 9.3 2.25 9.3 6.75 0 2.64-1.28 4.69-3.87 6.14l6.66 9.95h-7l-4.84-8.31h-1.57Zm0-4.64h1.16c2.16 0 3.23-.96 3.23-2.86 0-1.58-1.05-2.36-3.17-2.36h-1.22v5.22ZM148.85 8.63l3.93-8.47h6.69l-7.52 13.92V23h-6.21v-8.73L138.22.16h6.72z"></path></g></svg>