<svg xmlns="http://www.w3.org/2000/svg" width="75" height="33" viewBox="0 0 75 33"><g fill="#000" fill-rule="nonzero"><path d="M23.53 10.42c0 2.66-.66 5.2-1.99 7.6a15.71 15.71 0 0 1-5.45 5.79A14.18 14.18 0 0 1 8.36 26l-1.86-.03c-1.2-.04-2.07-.07-2.62-.07-1.73 0-3 .04-3.84.1l.1-.64a6.58 6.58 0 0 0 1.64-.26c.38-.12.68-.37.9-.75.22-.37.44-.95.66-1.74L7.53 6.74c.19-.81.29-1.34.29-1.57 0-.43-.16-.73-.47-.9-.3-.17-.87-.26-1.68-.29l.1-.64c.72.07 1.76.1 3.1.1l2.72-.03c1.45-.04 2.42-.07 2.91-.07 3.01 0 5.27.6 6.77 1.8 1.5 1.2 2.26 2.95 2.26 5.28Zm-15.55 15c2.64 0 4.9-.72 6.78-2.16a13.3 13.3 0 0 0 4.26-5.77 21.09 21.09 0 0 0 1.44-7.87c0-1.95-.55-3.38-1.64-4.3-1.08-.94-2.82-1.4-5.21-1.4a4.3 4.3 0 0 0-1.55.22c-.38.15-.68.42-.92.8-.23.39-.44.96-.64 1.73l-4.19 16c-.19.77-.29 1.3-.29 1.57 0 .4.15.7.44.9.28.19.8.28 1.52.28ZM30.22 4.14c0-.64.24-1.2.72-1.7s1.03-.76 1.64-.76c.5 0 .89.16 1.19.48.3.32.45.71.45 1.18 0 .64-.25 1.2-.74 1.7-.5.5-1.05.74-1.66.74-.47 0-.86-.16-1.16-.47-.3-.3-.44-.7-.44-1.17Zm-.96 8.13c.17-.51.25-.9.25-1.18 0-.54-.23-.8-.7-.8-.5 0-.93.25-1.31.77a10.4 10.4 0 0 0-1.22 2.5l-.45 1.18h-.6l.83-2.34c.42-1.22 1-2.07 1.7-2.56.72-.5 1.47-.74 2.26-.74 1.41 0 2.12.68 2.12 2.02 0 .7-.17 1.53-.52 2.46l-3.42 9.7c-.17.51-.26.9-.26 1.18 0 .54.26.8.77.8.45 0 .87-.24 1.25-.73.38-.5.8-1.34 1.25-2.53l.45-1.18h.6l-.83 2.33a5.28 5.28 0 0 1-1.68 2.53c-.7.51-1.44.77-2.25.77-1.5 0-2.24-.65-2.24-1.95 0-.62.19-1.47.57-2.53l3.43-9.7ZM34.54 21.42c0-1.68.37-3.49 1.12-5.42a13.18 13.18 0 0 1 3.23-4.9 6.9 6.9 0 0 1 4.9-2c1.36 0 2.43.43 3.21 1.27.78.84 1.17 2.1 1.17 3.76 0 1.68-.38 3.5-1.12 5.42a13.18 13.18 0 0 1-3.23 4.9 6.9 6.9 0 0 1-4.9 2 4.16 4.16 0 0 1-3.22-1.27c-.77-.84-1.16-2.1-1.16-3.76Zm9.05-11.68c-1.09 0-2.12.7-3.09 2.08a17.13 17.13 0 0 0-2.33 5.2 22.08 22.08 0 0 0-.88 6c0 .96.15 1.67.45 2.12.3.44.75.67 1.37.67 1.09 0 2.12-.7 3.09-2.08a17.13 17.13 0 0 0 2.34-5.2c.58-2.08.88-4.08.88-6 0-.96-.15-1.67-.45-2.11-.3-.45-.76-.68-1.38-.68ZM71.2.98c.95 0 1.69.2 2.23.64.55.42.82.97.82 1.63 0 .55-.21 1.06-.63 1.52-.41.46-.92.69-1.52.69-.4 0-.72-.1-.96-.3a.9.9 0 0 1-.32-.8c0-.5.17-.95.5-1.32.33-.37.77-.65 1.33-.82 0-.19-.15-.36-.43-.52a2.11 2.11 0 0 0-1.04-.24c-.64 0-1.26.27-1.86.83-.45.4-.82 1.05-1.12 1.93-.3.89-.67 2.2-1.12 3.92l-.35 1.38v.03h3.77l-.19.64h-3.77L60.8 31.57c-1.15.04-2.11.19-2.88.45l5.82-21.83h-6.43l-5.76 21.38c-1.15.04-2.11.19-2.88.45l5.89-21.83h-2.95l.2-.64h2.9a15 15 0 0 1 1.24-2.96c.5-.9 1.04-1.62 1.62-2.16a8.39 8.39 0 0 1 5.72-2.17c1.3 0 2.4.34 3.27 1.02.13-.17.34-.4.64-.7a5.82 5.82 0 0 1 4-1.6Zm-7.26 8.54c.35-1.32.7-2.44 1.06-3.36.36-.92.77-1.7 1.22-2.37a4.3 4.3 0 0 0-2.85-.96c-1.15 0-2.1.28-2.83.85a6.06 6.06 0 0 0-1.78 2.27c-.45.95-.86 2.14-1.25 3.57v.03h6.43v-.03Z"></path></g></svg>