<svg xmlns="http://www.w3.org/2000/svg" width="67" height="63" viewBox="0 0 67 63" fill="none"><path d="M17.7024 25.4211C15.2617 25.4211 13.2768 27.4039 13.2768 29.8421C13.2768 32.2803 15.2617 34.2632 17.7024 34.2632C20.1431 34.2632 22.1279 32.2803 22.1279 29.8421C22.1279 27.4039 20.1431 25.4211 17.7024 25.4211ZM17.7024 32.0526C16.482 32.0526 15.4896 31.0612 15.4896 29.8421C15.4896 28.623 16.482 27.6316 17.7024 27.6316C18.9227 27.6316 19.9152 28.623 19.9152 29.8421C19.9152 31.0612 18.9227 32.0526 17.7024 32.0526Z" fill="white"></path><path d="M33.1919 25.4211C30.7512 25.4211 28.7663 27.4039 28.7663 29.8421C28.7663 32.2803 30.7512 34.2632 33.1919 34.2632C35.6326 34.2632 37.6174 32.2803 37.6174 29.8421C37.6174 27.4039 35.6326 25.4211 33.1919 25.4211ZM33.1919 32.0526C31.9715 32.0526 30.9791 31.0612 30.9791 29.8421C30.9791 28.623 31.9715 27.6316 33.1919 27.6316C34.4122 27.6316 35.4046 28.623 35.4046 29.8421C35.4046 31.0612 34.4122 32.0526 33.1919 32.0526Z" fill="white"></path><path d="M48.6814 25.4211C46.2407 25.4211 44.2558 27.4039 44.2558 29.8421C44.2558 32.2803 46.2407 34.2632 48.6814 34.2632C51.1221 34.2632 53.1069 32.2803 53.1069 29.8421C53.1069 27.4039 51.1221 25.4211 48.6814 25.4211ZM48.6814 32.0526C47.461 32.0526 46.4686 31.0612 46.4686 29.8421C46.4686 28.623 47.461 27.6316 48.6814 27.6316C49.9017 27.6316 50.8941 28.623 50.8941 29.8421C50.8941 31.0612 49.9017 32.0526 48.6814 32.0526Z" fill="white"></path><path d="M33.1919 0C14.8899 0 8.92111e-05 13.3869 8.92111e-05 29.8421C8.92111e-05 35.5939 1.82121 41.1655 5.27537 45.9834C4.62149 53.2085 2.86896 58.5723 0.324262 61.1133C-0.0120811 61.4493 -0.0961669 61.9633 0.11626 62.3877C0.304347 62.7668 0.691584 63 1.10648 63C1.15738 63 1.20827 62.9967 1.26027 62.9889C1.70836 62.9259 12.1173 61.4294 19.6463 57.0879C23.9214 58.8111 28.4753 59.6842 33.1919 59.6842C51.4938 59.6842 66.3836 46.2973 66.3836 29.8421C66.3836 13.3869 51.4938 0 33.1919 0ZM33.1919 57.4737C29.3339 57.4737 25.5954 56.8448 22.045 55.6157C26.5535 52.8017 26.5635 52.6028 26.5601 51.9507C26.5579 51.5649 26.3488 51.1969 26.0169 50.999C25.5135 50.6973 24.8652 50.841 24.5366 51.3196C23.9302 51.8004 21.3236 53.4693 18.9891 54.9095C14.048 57.8904 7.39743 59.5538 3.70872 60.3043C6.14499 56.2479 7.12858 50.3735 7.51471 45.759C7.53683 45.4926 7.4616 45.2274 7.30339 45.0107C3.97314 40.5002 2.21287 35.2535 2.21287 29.8421C2.21287 14.6061 16.1103 2.21053 33.1919 2.21053C50.2735 2.21053 64.1708 14.6061 64.1708 29.8421C64.1708 45.0782 50.2735 57.4737 33.1919 57.4737Z" fill="white"></path></svg>