<svg xmlns="http://www.w3.org/2000/svg" width="113" height="24" viewBox="0 0 113 24"><g fill="#000" fill-rule="nonzero"><path d="M9.66 13.85v5.44c0 .9.1 1.54.28 1.95.18.4.5.68.99.82.48.13 1.24.2 2.29.2V23a187.58 187.58 0 0 0-10.78-.03L.9 23v-.64a5.03 5.03 0 0 0 1.48-.26c.31-.12.52-.37.63-.73.1-.36.16-.95.16-1.76V3.74c0-.81-.06-1.4-.18-1.76-.12-.37-.32-.61-.62-.74S1.57 1.03.9.98V.34c1.21.07 3.05.1 5.5.1l3.68-.03c.43-.02.92-.03 1.47-.03 3.16 0 5.55.57 7.19 1.7a5.33 5.33 0 0 1 2.44 4.6c0 1.17-.32 2.3-.96 3.38a7.22 7.22 0 0 1-3.26 2.7c-1.54.73-3.57 1.09-6.11 1.09H9.66ZM11.4.98c-.49 0-.86.08-1.1.23-.25.15-.41.41-.5.8a8.6 8.6 0 0 0-.13 1.73v9.47h.87c1.5 0 2.52-.56 3.09-1.67.56-1.1.84-2.6.84-4.5 0-2.08-.23-3.6-.7-4.58A2.43 2.43 0 0 0 11.39.98ZM45.57 21.72a5.39 5.39 0 0 1-2.11 1.34 8.5 8.5 0 0 1-2.7.39 6.3 6.3 0 0 1-3.42-.79c-.8-.52-1.3-1.4-1.5-2.67l-.48-3.2c-.21-1.5-.5-2.62-.88-3.39-.37-.77-.93-1.15-1.68-1.15h-1.44v7.36c0 .8.06 1.4.18 1.76.11.36.32.6.62.73s.79.22 1.47.26V23c-1.24-.06-3.02-.1-5.34-.1-2.58 0-4.48.04-5.7.1v-.64a5.03 5.03 0 0 0 1.49-.26c.3-.12.52-.37.62-.73.11-.36.16-.95.16-1.76V3.74c0-.81-.05-1.4-.17-1.76-.12-.37-.33-.61-.63-.74s-.79-.21-1.47-.26V.34c1.22.07 3.05.1 5.5.1l3.69-.03c.42-.02.91-.03 1.47-.03 3.24 0 5.66.45 7.25 1.37a4.52 4.52 0 0 1 2.38 4.2c0 1.6-.6 2.96-1.8 4.09-1.19 1.13-3.2 1.82-6 2.08 2.17.15 3.81.56 4.92 1.23 1.1.67 1.8 1.66 2.05 2.96l.67 3.33c.15.79.33 1.33.54 1.63.22.3.52.45.9.45s.71-.14 1-.42l.4.42ZM33.09.98c-.5 0-.86.08-1.1.23-.25.15-.42.41-.5.8a8.6 8.6 0 0 0-.13 1.73v7.87h.86c1.52 0 2.55-.47 3.1-1.4.56-.92.84-2.23.84-3.91 0-1.75-.24-3.08-.72-3.97-.48-.9-1.26-1.35-2.35-1.35Z"></path><path d="M65.25 20.31c.28.68.58 1.2.91 1.52.33.33.66.5.98.53V23c-1.54-.06-3.48-.1-5.83-.1-2.43 0-4.22.04-5.37.1v-.64a5.07 5.07 0 0 0 1.72-.3c.35-.16.52-.45.52-.85 0-.39-.13-.9-.39-1.54l-1.89-5.25h-6.46l-.54 1.44c-.7 1.82-1.06 3.2-1.06 4.16 0 .88.25 1.48.74 1.8.49.32 1.21.5 2.17.54V23c-1.6-.06-3-.1-4.19-.1-1 0-1.82.04-2.46.1v-.64a2.5 2.5 0 0 0 1.5-1c.47-.57.95-1.49 1.44-2.74L54.14.34c.69.05 1.25.07 1.7.07.43 0 .98-.02 1.66-.07l7.75 19.97Zm-9.57-6.53-2.91-8-3.07 8h5.98ZM78.46.34c4.42 0 7.73.95 9.92 2.84 2.2 1.88 3.3 4.63 3.3 8.24 0 2.32-.54 4.35-1.62 6.1a10.7 10.7 0 0 1-4.65 4.04A16.76 16.76 0 0 1 78.18 23l-1.99-.03a116.58 116.58 0 0 0-8.38.03v-.64a5.03 5.03 0 0 0 1.49-.26c.3-.12.51-.37.62-.73.1-.36.16-.95.16-1.76V3.74c0-.81-.06-1.4-.18-1.76-.11-.37-.32-.61-.62-.74s-.79-.21-1.47-.26V.34c.98.07 2.43.1 4.35.1h1.15l1.41-.03a185 185 0 0 1 3.74-.07Zm.48.58c-.66 0-1.15.07-1.48.22-.33.15-.56.42-.7.8-.12.39-.18.96-.18 1.73v16c0 .77.06 1.35.19 1.73.13.38.36.65.69.8.33.15.83.22 1.52.22 2.1 0 3.63-.9 4.57-2.73.94-1.83 1.41-4.54 1.41-8.15 0-3.6-.49-6.27-1.46-8.01A4.86 4.86 0 0 0 78.94.92ZM112.06 17.62c0 2.18.08 3.97.23 5.38a474.8 474.8 0 0 0-18.53 0v-.64a5.03 5.03 0 0 0 1.49-.26c.3-.12.52-.37.62-.73.1-.36.16-.95.16-1.76V3.74c0-.81-.06-1.4-.17-1.76-.12-.37-.33-.61-.63-.74s-.79-.21-1.47-.26V.34c2.47.07 6.2.1 11.2.1 3.14 0 5.37-.03 6.69-.1-.15 2-.23 3.8-.23 5.38 0 .98.04 1.75.1 2.3h-.74c-.38-2.47-1.1-4.25-2.14-5.32a5.04 5.04 0 0 0-3.74-1.62h-.42c-.58 0-1 .05-1.26.14a.86.86 0 0 0-.55.55c-.1.26-.14.7-.14 1.33v8.19h.32a3.7 3.7 0 0 0 2.85-1.31 6.08 6.08 0 0 0 1.5-2.92h.74c-.07.9-.1 1.9-.1 3.01v1.54c0 1.09.06 2.6.2 4.54h-.74a5.33 5.33 0 0 0-1.5-3.02c-.8-.8-1.78-1.2-2.95-1.2h-.32v8.32c0 .62.05 1.06.14 1.33.1.26.28.44.55.54.26.1.68.14 1.26.14h1.06c1.23 0 2.4-.6 3.52-1.8 1.1-1.2 1.9-3.13 2.36-5.78h.74c-.06.77-.1 1.75-.1 2.94Z"></path></g></svg>