<svg xmlns="http://www.w3.org/2000/svg" width="62" height="63" viewBox="0 0 62 63" fill="none"><path d="M61.9351 15.9506C61.8703 15.8222 61.8703 15.758 61.7406 15.6296C61.6757 15.5013 61.546 15.4371 61.3515 15.3729L46.5 7.73459L31.454 0.0962812C31.1946 -0.0320937 30.8703 -0.0320937 30.6109 0.0962812L15.5 7.73459L0.583682 15.3729C0.389121 15.4371 0.194561 15.6296 0.129707 15.8222C0.0648536 15.9506 0.0648536 16.0148 0 16.1431V46.7606C0 47.0815 0.194561 47.4024 0.518829 47.595L30.546 62.8074C30.546 62.8074 30.6109 62.8074 30.6109 62.8716C30.6109 62.8716 30.6757 62.8716 30.6757 62.9358C30.8054 63 30.8703 63 31 63C31.1297 63 31.1946 63 31.3243 62.9358C31.3243 62.9358 31.3891 62.9358 31.3891 62.8716C31.3891 62.8716 31.454 62.8716 31.454 62.8074L61.4812 47.595C61.8054 47.4024 62 47.0815 62 46.7606V16.2073C62 16.079 62 16.0148 61.9351 15.9506ZM31 1.95772L45.592 9.40346L59.0167 16.2073L49.8075 20.893L21.7908 6.6434L31 1.95772ZM43.1925 26.2848L46.4351 24.6159L48.5753 23.5247V27.5043L46.8243 26.7341C46.4351 26.5415 45.9812 26.6699 45.7218 26.9908L43.2573 30.0076V26.2848H43.1925ZM16.4079 9.40346L19.7155 7.73459L47.7322 21.92L42.2845 24.7443L14.2678 10.4947L16.4079 9.40346ZM30.092 60.5609L1.88075 46.1829V17.7478L15.5649 24.6801L30.092 32.0616V60.5609ZM31 30.457L16.4079 23.0112L2.98326 16.2073L12.1925 11.5217L40.2092 25.7713L31 30.457ZM60.1192 46.2471L31.9079 60.4967V32.0616L41.3766 27.2476V32.6393C41.3766 33.1528 41.7657 33.538 42.2845 33.538C42.6088 33.538 42.8682 33.4096 43.0628 33.1528L46.6946 28.7239L49.159 29.7509C49.613 29.9435 50.1967 29.7509 50.3912 29.2374C50.4561 29.1732 50.4561 29.0448 50.4561 28.9165V22.6261L60.1192 17.7478V46.2471Z" fill="white"></path></svg>