<svg xmlns="http://www.w3.org/2000/svg" width="113" height="24" viewBox="0 0 113 24"><g fill="#000" fill-rule="nonzero"><path d="M17.62 16.47a6.33 6.33 0 0 1-3.77 5.86c-1.24.6-2.72.9-4.45.9-2.62 0-4.78-.64-6.48-1.9a6.88 6.88 0 0 1-2.77-5.37h6.69c.06.79.3 1.38.74 1.76.42.38.95.58 1.56.58.56 0 1-.14 1.3-.42.3-.28.46-.67.46-1.18 0-.69-.3-1.21-.92-1.59-.62-.37-1.6-.78-2.95-1.23-1.43-.5-2.6-.97-3.53-1.44A6.06 6.06 0 0 1 .1 6.71C.08 5.31.44 4.1 1.17 3.08A6.74 6.74 0 0 1 4.15.78a11.1 11.1 0 0 1 4.29-.79c2.6 0 4.68.62 6.22 1.84A6.85 6.85 0 0 1 17.21 7h-6.75c-.09-.7-.3-1.23-.66-1.57a1.91 1.91 0 0 0-1.4-.51c-.48 0-.87.13-1.14.38-.28.26-.42.64-.42 1.16 0 .64.3 1.14.91 1.5.61.36 1.56.77 2.87 1.22a28.7 28.7 0 0 1 3.55 1.5c.94.5 1.75 1.2 2.43 2.14a6.05 6.05 0 0 1 1.02 3.65ZM40.63 11.41l8.77 11.6h-7.58l-7.14-10.03V23h-6.3V.34h6.3v9.8l7.2-9.8h7.52zM80.4 23h-6.3L65.8 10.36V23h-6.31V.37h6.3l8.33 12.8V.37h6.3zM112.57.34l-8 15.46V23H98.3v-7.2L90.3.34h7.2l4 8.64 3.97-8.64z"></path></g></svg>