<svg xmlns="http://www.w3.org/2000/svg" width="63" height="63" viewBox="0 0 63 63" fill="none"><path d="M43.9243 19.3562C43.696 19.3563 43.477 19.4471 43.3156 19.6086L28.3179 34.6063L19.6868 25.9747C19.5223 25.8191 19.3045 25.7324 19.0781 25.7324C18.8517 25.7324 18.6338 25.8191 18.4694 25.9747L14.9898 29.4547C14.8285 29.6162 14.7378 29.8351 14.7378 30.0634C14.7378 30.2917 14.8285 30.5106 14.9898 30.6721L27.7107 43.392C27.7906 43.472 27.8855 43.5355 27.9899 43.5788C28.0944 43.6221 28.2063 43.6444 28.3194 43.6444C28.4325 43.6444 28.5444 43.6221 28.6489 43.5788C28.7533 43.5355 28.8482 43.472 28.9281 43.392L48.0126 24.306C48.174 24.1445 48.2646 23.9254 48.2646 23.6971C48.2646 23.4687 48.174 23.2497 48.0126 23.0881L44.533 19.6086C44.3716 19.4471 44.1527 19.3563 43.9243 19.3562ZM28.3179 41.5654L16.8164 30.0634L19.08 27.7998L27.7107 36.4324C27.7906 36.5125 27.8855 36.5759 27.9899 36.6192C28.0944 36.6626 28.2063 36.6849 28.3194 36.6849C28.4325 36.6849 28.5444 36.6626 28.6489 36.6192C28.7533 36.5759 28.8482 36.5125 28.9281 36.4324L43.9243 21.4352L46.1879 23.6988L28.3179 41.5654Z" fill="white"></path><path d="M31.4997 8.04366C26.8604 8.04366 22.3253 9.41936 18.4679 11.9968C14.6105 14.5743 11.604 18.2377 9.82863 22.5238C8.05325 26.81 7.58873 31.5263 8.49381 36.0764C9.39889 40.6266 11.6329 44.8062 14.9134 48.0866C18.1939 51.3671 22.3734 53.6011 26.9236 54.5062C31.4737 55.4113 36.19 54.9468 40.4762 53.1714C44.7623 51.396 48.4257 48.3895 51.0032 44.5321C53.5806 40.6747 54.9563 36.1396 54.9563 31.5003C54.9493 25.2814 52.4757 19.3192 48.0783 14.9217C43.6808 10.5243 37.7186 8.05069 31.4997 8.04366ZM31.4997 53.2346C27.2011 53.2346 22.999 51.9599 19.4248 49.5717C15.8506 47.1835 13.0648 43.7891 11.4198 39.8176C9.77479 35.8462 9.34438 31.4762 10.183 27.2601C11.0216 23.0441 13.0916 19.1714 16.1312 16.1318C19.1708 13.0922 23.0435 11.0222 27.2596 10.1836C31.4756 9.34494 35.8457 9.77536 39.8171 11.4204C43.7885 13.0654 47.183 15.8511 49.5712 19.4253C51.9594 22.9995 53.2341 27.2016 53.2341 31.5003C53.2275 37.2626 50.9356 42.787 46.861 46.8616C42.7865 50.9361 37.262 53.2281 31.4997 53.2346Z" fill="white"></path><path d="M62.0232 34.2623C62.6555 33.4807 63.0004 32.5057 63.0004 31.5003C63.0004 30.4949 62.6555 29.5199 62.0232 28.7382L60.6119 26.9766C60.3413 26.6385 60.1562 26.2402 60.072 25.8155C59.9878 25.3908 60.007 24.952 60.1281 24.5363L60.758 22.3756C61.0346 21.4094 60.9757 20.378 60.5909 19.4496C60.2061 18.5212 59.5181 17.7505 58.6391 17.2633L56.6673 16.1807C56.2875 15.9727 55.9633 15.6763 55.7222 15.3166C55.4811 14.9569 55.3302 14.5444 55.2821 14.114L55.0361 11.8726C54.9308 10.8722 54.4853 9.93828 53.774 9.227C53.0627 8.51573 52.1288 8.0702 51.1284 7.96492L48.887 7.71888C48.4566 7.67101 48.0441 7.52018 47.6844 7.27915C47.3246 7.03812 47.0282 6.71398 46.8202 6.33416L45.7377 4.36189C45.2579 3.47569 44.488 2.78145 43.5571 2.39564C42.6262 2.00983 41.5909 1.95593 40.6249 2.24298L38.4647 2.87235C38.0487 2.99322 37.6098 3.01232 37.185 2.92805C36.7601 2.84378 36.3618 2.65861 36.0234 2.38815L34.2618 0.97685C33.48 0.344799 32.5051 0 31.4997 0C30.4944 0 29.5195 0.344799 28.7377 0.97685L26.976 2.38815C26.6376 2.65804 26.2394 2.84283 25.8147 2.92699C25.3901 3.01116 24.9515 2.99226 24.5358 2.87186L22.375 2.242C21.4088 1.96521 20.3774 2.02402 19.4489 2.40885C18.5205 2.79367 17.7498 3.48178 17.2628 4.36091L16.1802 6.33268C15.9722 6.71251 15.6758 7.03668 15.316 7.27779C14.9563 7.5189 14.5438 7.66985 14.1134 7.7179L11.872 7.96394C10.8716 8.06922 9.93772 8.51474 9.22644 9.22602C8.51517 9.93729 8.06964 10.8712 7.96436 11.8716L7.71832 14.113C7.67045 14.5434 7.51961 14.9559 7.27858 15.3156C7.03755 15.6754 6.71342 15.9718 6.3336 16.1798L4.36133 17.2623C3.47533 17.7423 2.78125 18.5122 2.39547 19.4431C2.00969 20.3739 1.95565 21.4091 2.24242 22.3751L2.87278 24.5348C2.99364 24.9508 3.01274 25.3897 2.92847 25.8145C2.8442 26.2394 2.65903 26.6378 2.38857 26.9761L0.977273 28.7377C0.344964 29.5194 0 30.4944 0 31.4998C0 32.5052 0.344964 33.4802 0.977273 34.2619L2.38857 36.0235C2.65909 36.3616 2.84426 36.7598 2.92845 37.1846C3.01265 37.6093 2.99338 38.048 2.87229 38.4638L2.24242 40.6245C1.96561 41.5906 2.0243 42.6221 2.40893 43.5506C2.79355 44.4791 3.48142 45.2499 4.36034 45.7372L6.33212 46.8198C6.71195 47.0278 7.03612 47.3242 7.27723 47.684C7.51833 48.0437 7.66929 48.4562 7.71734 48.8866L7.96338 51.128C8.06866 52.1284 8.51418 53.0623 9.22546 53.7736C9.93673 54.4848 10.8706 54.9304 11.871 55.0356L14.1125 55.2817C14.5428 55.3296 14.9553 55.4804 15.3151 55.7214C15.6748 55.9624 15.9712 56.2866 16.1792 56.6664L17.2618 58.6387C17.7415 59.5249 18.5114 60.2191 19.4423 60.6049C20.3733 60.9907 21.4086 61.0446 22.3745 60.7576L24.5343 60.1272C24.9503 60.0067 25.3891 59.9878 25.8139 60.0721C26.2386 60.1563 26.637 60.3413 26.9755 60.6114L28.7372 62.0227C29.5189 62.655 30.4938 63 31.4992 63C32.5046 63 33.4796 62.655 34.2613 62.0227L36.023 60.6114C36.3611 60.341 36.7593 60.1559 37.184 60.0717C37.6087 59.9875 38.0475 60.0067 38.4632 60.1277L40.6239 60.7576C41.5898 61.0443 42.6249 60.9903 43.5557 60.6045C44.4865 60.2187 45.2563 59.5246 45.7362 58.6387L46.8188 56.6669C47.0268 56.2871 47.3232 55.9629 47.6829 55.7218C48.0426 55.4807 48.4551 55.3297 48.8855 55.2817L51.127 55.0356C52.1273 54.9304 53.0612 54.4848 53.7725 53.7736C54.4838 53.0623 54.9293 52.1284 55.0346 51.128L55.2806 48.8866C55.3285 48.4562 55.4793 48.0437 55.7204 47.6839C55.9614 47.3242 56.2855 47.0278 56.6654 46.8198L58.6376 45.7372C59.5236 45.2573 60.2177 44.4874 60.6035 43.5565C60.9893 42.6256 61.0433 41.5905 60.7565 40.6245L60.1262 38.4647C60.0053 38.0488 59.9862 37.6099 60.0705 37.1851C60.1547 36.7602 60.3399 36.3618 60.6104 36.0235L62.0232 34.2623ZM59.2675 34.9478C58.8243 35.502 58.5208 36.1547 58.3828 36.8508C58.2447 37.5469 58.2761 38.266 58.4743 38.9475L59.1051 41.1072C59.28 41.6966 59.2469 42.3282 59.0115 42.8961C58.776 43.464 58.3525 43.9338 57.8119 44.2265L55.8391 45.3091C55.2164 45.6504 54.685 46.1368 54.2901 46.7271C53.8952 47.3174 53.6484 47.9942 53.5706 48.7001L53.3246 50.9415C53.26 51.5518 52.988 52.1216 52.554 52.5555C52.12 52.9895 51.5503 53.2615 50.94 53.3261L48.698 53.5722C47.9922 53.6503 47.3156 53.8973 46.7254 54.2922C46.1353 54.6872 45.6489 55.2185 45.3076 55.8412L44.225 57.8134C43.932 58.3537 43.4624 58.777 42.8946 59.0124C42.3269 59.2478 41.6955 59.2811 41.1062 59.1066L38.9459 58.4763C38.2646 58.2778 37.5456 58.2462 36.8495 58.3841C36.1534 58.5221 35.5008 58.8256 34.9468 59.269L33.1851 60.6803C32.7081 61.0664 32.1129 61.277 31.4992 61.277C30.8855 61.277 30.2904 61.0664 29.8134 60.6803L28.0517 59.269C27.4975 58.8257 26.8448 58.5222 26.1487 58.3842C25.4526 58.2461 24.7335 58.2775 24.052 58.4758L21.8928 59.1062C21.3034 59.2805 20.672 59.2471 20.1042 59.0117C19.5364 58.7763 19.0667 58.3532 18.7735 57.813L17.6909 55.8402C17.3496 55.2174 16.8631 54.6861 16.2729 54.2912C15.6826 53.8963 15.0058 53.6495 14.2999 53.5717L12.0585 53.3256C11.4482 53.261 10.8784 52.989 10.4445 52.5551C10.0105 52.1211 9.73847 51.5514 9.67386 50.941L9.42782 48.6991C9.34972 47.9933 9.10275 47.3166 8.70779 46.7265C8.31284 46.1363 7.78153 45.65 7.15882 45.3086L5.18655 44.226C4.6503 43.9288 4.23057 43.4587 3.99581 42.8923C3.76105 42.3259 3.72511 41.6967 3.89385 41.1072L4.52421 38.947C4.72257 38.2657 4.75409 37.5466 4.61612 36.8506C4.47814 36.1546 4.17472 35.5019 3.73146 34.9478L2.31918 33.1862C1.93328 32.709 1.72275 32.1139 1.72275 31.5003C1.72275 30.8866 1.93328 30.2915 2.31918 29.8144L3.73048 28.0527C4.17371 27.4985 4.47715 26.8458 4.61521 26.1497C4.75327 25.4536 4.72189 24.7345 4.52372 24.0531L3.89385 21.8933C3.71898 21.3039 3.75204 20.6724 3.98749 20.1044C4.22293 19.5365 4.64645 19.0668 5.18704 18.774L7.15981 17.6914C7.78259 17.3501 8.31393 16.8637 8.70882 16.2734C9.1037 15.6832 9.3505 15.0064 9.42831 14.3005L9.67435 12.0591C9.73942 11.4485 10.0121 10.8787 10.4467 10.4449C10.8814 10.0112 11.4517 9.73971 12.0624 9.6759L14.3044 9.42986C15.0102 9.35176 15.6868 9.10479 16.277 8.70983C16.8671 8.31488 17.3535 7.78357 17.6948 7.16086L18.7774 5.18859C19.0745 4.65304 19.544 4.23371 20.1096 3.99875C20.6752 3.76379 21.3036 3.72702 21.8928 3.89441L24.053 4.52477C24.7343 4.72321 25.4534 4.75478 26.1494 4.6168C26.8455 4.47882 27.4981 4.17535 28.0522 3.73202L29.8138 2.31975C30.2909 1.93376 30.886 1.72317 31.4997 1.72317C32.1134 1.72317 32.7085 1.93376 33.1856 2.31975L34.9473 3.73104C35.5016 4.17402 36.1543 4.4773 36.8504 4.61534C37.5464 4.75339 38.2654 4.72216 38.9469 4.52428L41.1067 3.89441C41.6961 3.7202 42.3274 3.75358 42.8952 3.98896C43.463 4.22434 43.9327 4.64746 44.226 5.18761L45.3086 7.16037C45.6499 7.78315 46.1363 8.31449 46.7266 8.70938C47.3168 9.10427 47.9936 9.35106 48.6995 9.42887L50.9409 9.67491C51.5513 9.73952 52.121 10.0115 52.555 10.4455C52.989 10.8795 53.261 11.4492 53.3256 12.0595L53.5716 14.3015C53.6497 15.0073 53.8967 15.6839 54.2916 16.2741C54.6866 16.8643 55.2179 17.3506 55.8406 17.6919L57.8129 18.7745C58.3492 19.0717 58.7689 19.5419 59.0038 20.1082C59.2386 20.6746 59.2747 21.3038 59.1061 21.8933L58.4757 24.0536C58.2774 24.7349 58.2458 25.4539 58.3838 26.15C58.5218 26.846 58.8252 27.4986 59.2685 28.0527L60.6798 29.8144C61.0657 30.2915 61.2762 30.8866 61.2762 31.5003C61.2762 32.1139 61.0657 32.709 60.6798 33.1862L59.2675 34.9478Z" fill="white"></path></svg>