<svg xmlns="http://www.w3.org/2000/svg" width="97" height="24" viewBox="0 0 97 24"><g fill="#000" fill-rule="nonzero"><path d="M16.6.98 3.83 22.26h6.27c1.33 0 2.33-.18 3.03-.56a3.3 3.3 0 0 0 1.52-1.8c.32-.84.55-2.04.7-3.62h.74c-.07.66-.1 1.54-.1 2.62 0 1.22.08 2.59.23 4.1-1.58-.06-4.24-.1-7.97-.1-3.65 0-6.28.04-7.9.1v-.64L13.2 1.08H6.97c-1.32 0-2.33.19-3.03.56-.69.37-1.2.98-1.52 1.8-.32.84-.55 2.05-.7 3.62H.98c.07-.68.1-1.55.1-2.62 0-1.22-.07-2.58-.22-4.1 1.57.07 4.23.1 7.96.1 3.63 0 6.22-.03 7.78-.1v.64ZM41.49 20.31c.5 1.32 1.24 2 2.2 2.05V23a63.18 63.18 0 0 0-7.52 0v-.64c.81-.04 1.4-.14 1.75-.3.35-.16.53-.46.53-.88 0-.37-.13-.87-.39-1.5l-1.95-5.26h-7.74l-1.32 3.4a8.38 8.38 0 0 0-.64 2.62c0 .66.23 1.14.7 1.44.45.3 1.15.46 2.09.48V23a70 70 0 0 0-3.68-.1c-.96 0-1.76.04-2.4.1v-.64c1.06-.26 1.9-1.18 2.53-2.78L33.17.18h.5l7.82 20.13Zm-5.64-6.53-3.58-9.56-3.65 9.56h7.23ZM69.63.98c-.74.05-1.3.16-1.66.34-.36.18-.6.48-.74.9-.12.41-.19 1.03-.19 1.84v19.1h-.73L52.87 2.39v16.9c0 .83.07 1.45.2 1.85.14.4.42.7.82.88.4.19 1.04.3 1.89.34V23c-.77-.06-1.86-.1-3.27-.1-1.28 0-2.27.04-2.97.1v-.64c.75-.04 1.3-.15 1.66-.34.37-.18.61-.48.74-.9.13-.4.2-1.02.2-1.83V3.74c0-.81-.07-1.4-.2-1.76-.13-.37-.37-.61-.72-.74a6.37 6.37 0 0 0-1.68-.26V.34a35.07 35.07 0 0 0 5.47 0l11.3 17.41V4.05c0-.83-.07-1.44-.21-1.85-.14-.4-.41-.7-.82-.88A5.6 5.6 0 0 0 63.4.98V.34c.77.07 1.86.1 3.27.1 1.28 0 2.27-.03 2.97-.1v.64ZM94.07 20.31c.51 1.32 1.25 2 2.21 2.05V23a63.18 63.18 0 0 0-7.52 0v-.64c.81-.04 1.4-.14 1.74-.3.36-.16.53-.46.53-.88 0-.37-.13-.87-.38-1.5l-1.95-5.26h-7.75l-1.31 3.4a8.38 8.38 0 0 0-.64 2.62c0 .66.23 1.14.69 1.44.46.3 1.16.46 2.1.48V23a70 70 0 0 0-3.69-.1c-.96 0-1.76.04-2.4.1v-.64c1.07-.26 1.91-1.18 2.53-2.78L85.75.18h.51l7.81 20.13Zm-5.63-6.53-3.58-9.56-3.65 9.56h7.23Z"></path></g></svg>